# xmcd
#
# Track frame offsets:
# 150
# 17930
# 34067
# 48571
# 60953
# 81172
# 96656
# 117364
# 130562
# 150128
# 167952
# 174130
#
# Disc length: 2774 seconds
#
# Revision: 0
# Processed by: cddbd v1.5.2PL0 Copyright (c) Steve Scherf et al.
# Submitted via: CoinsHifi v1.9h contact@coinshifi.com
#
DISCID=8e0ad40c
DTITLE=Dalida - DALIDA à TUBIZE
DYEAR=1978
DGENRE=Blues
TTITLE0=Les grilles de maison
TTITLE1=Les clés de l'amour
TTITLE2=Salma ya salma
TTITLE3=Que sont devenues les fleurs
TTITLE4=Avec le temps
TTITLE5=Amoureuse de la vie
TTITLE6=Po pourri
TTITLE7=Il venait d'avoir 18 ans
TTITLE8=Je suis malade
TTITLE9=J'attendrai
TTITLE10=Dalida présente ses musiciens
TTITLE11=Gigi l'amoroso
EXTD=
EXTT0=Live
EXTT1=Live
EXTT2=Live
EXTT3=Live
EXTT4=Live
EXTT5=Live
EXTT6=Live
EXTT7=Live
EXTT8=Live
EXTT9=Live
EXTT10=Live
EXTT11=Live
PLAYORDER=
